<svg xmlns="http://www.w3.org/2000/svg" width="399" height="328" viewBox="-2 -2 399 328" fill="none">
<path d="M395 0.410483C368.361 95.5885 345.012 162.762 324.193 208.595C303.395 254.385 285.061 279.018 268.372 288.914C259.991 293.884 252.008 295.148 244.363 293.489C236.742 291.834 229.536 287.292 222.65 280.798C208.895 267.823 196.213 246.855 183.86 224.705C171.48 202.505 159.422 179.103 146.874 161.067C140.604 152.054 134.239 144.424 127.687 138.976C121.138 133.529 114.45 130.302 107.519 129.999C93.6872 129.396 78.3441 140.456 60.8014 170.637C43.296 200.753 23.7637 249.632 1.45818 324L0 323.562C22.3146 249.164 41.8872 200.147 59.4847 169.872C77.0446 139.662 92.8034 127.833 107.585 128.477C114.961 128.799 121.958 132.231 128.661 137.806C135.362 143.379 141.818 151.133 148.124 160.197C160.729 178.315 172.85 201.837 185.189 223.964C197.556 246.139 210.136 266.9 223.695 279.689C230.467 286.077 237.432 290.426 244.685 292C251.914 293.57 259.508 292.4 267.596 287.604C283.845 277.968 302.018 253.737 322.808 207.966C343.579 162.237 366.904 95.148 393.534 0L394.267 0.205954L395 0.410483Z" fill="black"/>
<path d="M98.6704 180.064C100.247 178.925 101.876 178.517 103.396 178.848L103.7 178.924L103.744 178.936L103.786 178.954L104.479 179.27C106.042 180.037 107.22 181.02 108.034 182.196C108.965 183.541 109.384 185.087 109.409 186.74C109.457 190.01 107.965 193.755 105.759 197.471C101.547 204.566 94.5 211.93 89.278 216.433C90.7401 217.272 93.0109 218.111 96.0243 218.924C99.6389 219.9 104.225 220.819 109.551 221.679C120.201 223.4 133.753 224.879 148.292 226.122C177.367 228.609 210.34 230.149 231.829 230.806L231.806 231.567L231.784 232.328C210.277 231.67 177.275 230.129 148.163 227.64C133.609 226.395 120.013 224.912 109.308 223.183C103.957 222.319 99.3127 221.39 95.6268 220.395C92.7176 219.609 90.3437 218.765 88.6849 217.846C88.5033 220.71 88.3842 223.761 88.344 227.012L87.5825 227.003L86.8211 226.993C86.8677 223.227 87.0152 219.722 87.2487 216.462L87.4632 213.781C88.6158 200.666 91.034 191.787 93.8554 186.259C95.3598 183.311 97.0007 181.27 98.6704 180.064ZM103.238 180.376C102.188 180.091 100.938 180.305 99.5622 181.298C98.1551 182.314 96.6507 184.13 95.2111 186.951C92.4565 192.348 90.0284 201.264 88.9142 214.729C93.98 210.261 100.514 203.323 104.45 196.693C106.612 193.051 107.928 189.605 107.885 186.763C107.865 185.36 107.513 184.119 106.781 183.061C106.055 182.011 104.917 181.09 103.238 180.376Z" fill="black"/>
<path d="M263.109 193.445C263.781 193.362 264.261 193.819 264.545 194.184C264.856 194.584 265.143 195.142 265.421 195.778C265.981 197.06 266.599 198.893 267.327 201.007C268.061 203.137 268.919 205.59 269.975 208.165C274.22 218.526 281.51 230.543 296.123 231.505L296.022 233.025C280.448 231.999 272.836 219.161 268.567 208.744C267.494 206.125 266.623 203.637 265.888 201.503C265.147 199.353 264.555 197.598 264.026 196.388C263.76 195.779 263.533 195.365 263.343 195.119C263.315 195.084 263.289 195.058 263.268 195.035C263.226 195.086 263.17 195.163 263.102 195.279C262.94 195.551 262.759 195.95 262.559 196.502L262.351 197.108C259.612 205.55 257.887 215.808 256.822 220.701C256.564 221.886 256.328 222.837 256.107 223.331C256.053 223.451 255.967 223.625 255.832 223.765C255.761 223.839 255.632 223.949 255.441 224.006C255.221 224.072 254.991 224.044 254.797 223.936C254.629 223.843 254.528 223.712 254.474 223.629C254.417 223.54 254.378 223.45 254.351 223.376C254.296 223.228 254.257 223.056 254.226 222.881C254.103 222.19 254.024 220.934 253.973 219.055C253.922 217.156 253.901 214.57 253.901 211.188C253.9 207.254 253.584 204.182 253.043 201.871C252.498 199.546 251.74 198.065 250.914 197.233C250.126 196.439 249.253 196.207 248.281 196.416C247.254 196.637 246.059 197.368 244.771 198.653C242.201 201.214 239.503 205.738 237.306 211.605C235.115 217.456 233.444 224.588 232.892 232.319L231.372 232.212C231.935 224.335 233.638 217.059 235.88 211.071C238.117 205.098 240.912 200.35 243.696 197.575C245.084 196.191 246.531 195.236 247.961 194.928C249.445 194.608 250.845 195.001 251.995 196.159C253.106 197.278 253.951 199.074 254.525 201.523C255.102 203.985 255.423 207.184 255.423 211.188C255.423 214.566 255.445 217.135 255.496 219.013C255.5 219.188 255.507 219.357 255.512 219.52C256.571 214.433 258.288 204.697 260.903 196.638L261.124 195.991C261.345 195.38 261.566 194.882 261.793 194.499C262.069 194.036 262.483 193.523 263.109 193.445Z" fill="black"/>
<path d="M395 0.410483C368.361 95.5885 345.012 162.762 324.193 208.595C303.395 254.385 285.061 279.018 268.372 288.914C259.991 293.884 252.008 295.148 244.363 293.489C236.742 291.834 229.536 287.292 222.65 280.798C208.895 267.823 196.213 246.855 183.86 224.705C171.48 202.505 159.422 179.103 146.874 161.067C140.604 152.054 134.239 144.424 127.687 138.976C121.138 133.529 114.45 130.302 107.519 129.999C93.6872 129.396 78.3441 140.456 60.8014 170.637C43.296 200.753 23.7637 249.632 1.45818 324L0 323.562C22.3146 249.164 41.8872 200.147 59.4847 169.872C77.0446 139.662 92.8034 127.833 107.585 128.477C114.961 128.799 121.958 132.231 128.661 137.806C135.362 143.379 141.818 151.133 148.124 160.197C160.729 178.315 172.85 201.837 185.189 223.964C197.556 246.139 210.136 266.9 223.695 279.689C230.467 286.077 237.432 290.426 244.685 292C251.914 293.57 259.508 292.4 267.596 287.604C283.845 277.968 302.018 253.737 322.808 207.966C343.579 162.237 366.904 95.148 393.534 0L394.267 0.205954L395 0.410483Z" stroke="black" stroke-width="4"/>
<path d="M98.6704 180.064C100.247 178.925 101.876 178.517 103.396 178.848L103.7 178.924L103.744 178.936L103.786 178.954L104.479 179.27C106.042 180.037 107.22 181.02 108.034 182.196C108.965 183.541 109.384 185.087 109.409 186.74C109.457 190.01 107.965 193.755 105.759 197.471C101.547 204.566 94.5 211.93 89.278 216.433C90.7401 217.272 93.0109 218.111 96.0243 218.924C99.6389 219.9 104.225 220.819 109.551 221.679C120.201 223.4 133.753 224.879 148.292 226.122C177.367 228.609 210.34 230.149 231.829 230.806L231.806 231.567L231.784 232.328C210.277 231.67 177.275 230.129 148.163 227.64C133.609 226.395 120.013 224.912 109.308 223.183C103.957 222.319 99.3127 221.39 95.6268 220.395C92.7176 219.609 90.3437 218.765 88.6849 217.846C88.5033 220.71 88.3842 223.761 88.344 227.012L87.5825 227.003L86.8211 226.993C86.8677 223.227 87.0152 219.722 87.2487 216.462L87.4632 213.781C88.6158 200.666 91.034 191.787 93.8554 186.259C95.3598 183.311 97.0007 181.27 98.6704 180.064ZM103.238 180.376C102.188 180.091 100.938 180.305 99.5622 181.298C98.1551 182.314 96.6507 184.13 95.2111 186.951C92.4565 192.348 90.0284 201.264 88.9142 214.729C93.98 210.261 100.514 203.323 104.45 196.693C106.612 193.051 107.928 189.605 107.885 186.763C107.865 185.36 107.513 184.119 106.781 183.061C106.055 182.011 104.917 181.09 103.238 180.376Z" stroke="black" stroke-width="4"/>
<path d="M263.109 193.445C263.781 193.362 264.261 193.819 264.545 194.184C264.856 194.584 265.143 195.142 265.421 195.778C265.981 197.06 266.599 198.893 267.327 201.007C268.061 203.137 268.919 205.59 269.975 208.165C274.22 218.526 281.51 230.543 296.123 231.505L296.022 233.025C280.448 231.999 272.836 219.161 268.567 208.744C267.494 206.125 266.623 203.637 265.888 201.503C265.147 199.353 264.555 197.598 264.026 196.388C263.76 195.779 263.533 195.365 263.343 195.119C263.315 195.084 263.289 195.058 263.268 195.035C263.226 195.086 263.17 195.163 263.102 195.279C262.94 195.551 262.759 195.95 262.559 196.502L262.351 197.108C259.612 205.55 257.887 215.808 256.822 220.701C256.564 221.886 256.328 222.837 256.107 223.331C256.053 223.451 255.967 223.625 255.832 223.765C255.761 223.839 255.632 223.949 255.441 224.006C255.221 224.072 254.991 224.044 254.797 223.936C254.629 223.843 254.528 223.712 254.474 223.629C254.417 223.54 254.378 223.45 254.351 223.376C254.296 223.228 254.257 223.056 254.226 222.881C254.103 222.19 254.024 220.934 253.973 219.055C253.922 217.156 253.901 214.57 253.901 211.188C253.9 207.254 253.584 204.182 253.043 201.871C252.498 199.546 251.74 198.065 250.914 197.233C250.126 196.439 249.253 196.207 248.281 196.416C247.254 196.637 246.059 197.368 244.771 198.653C242.201 201.214 239.503 205.738 237.306 211.605C235.115 217.456 233.444 224.588 232.892 232.319L231.372 232.212C231.935 224.335 233.638 217.059 235.88 211.071C238.117 205.098 240.912 200.35 243.696 197.575C245.084 196.191 246.531 195.236 247.961 194.928C249.445 194.608 250.845 195.001 251.995 196.159C253.106 197.278 253.951 199.074 254.525 201.523C255.102 203.985 255.423 207.184 255.423 211.188C255.423 214.566 255.445 217.135 255.496 219.013C255.5 219.188 255.507 219.357 255.512 219.52C256.571 214.433 258.288 204.697 260.903 196.638L261.124 195.991C261.345 195.38 261.566 194.882 261.793 194.499C262.069 194.036 262.483 193.523 263.109 193.445Z" stroke="black" stroke-width="4"/>
</svg>
